<?xml version="1.0" encoding="UTF-8" standalone="no"?>
<!-- Created with Inkscape (http://www.inkscape.org/) -->

<svg
   xmlns:dc="http://purl.org/dc/elements/1.1/"
   xmlns:cc="http://creativecommons.org/ns#"
   xmlns:rdf="http://www.w3.org/1999/02/22-rdf-syntax-ns#"
   xmlns:svg="http://www.w3.org/2000/svg"
   xmlns="http://www.w3.org/2000/svg"
   xmlns:sodipodi="http://sodipodi.sourceforge.net/DTD/sodipodi-0.dtd"
   xmlns:inkscape="http://www.inkscape.org/namespaces/inkscape"
   width="178.98404mm"
   height="143.44087mm"
   viewBox="0 0 634.19541 508.25506"
   id="svg3338"
   version="1.1"
   inkscape:version="0.91 r13725"
   sodipodi:docname="f9-logo.svg">
  <title
     id="title4501">Falcon 9 Logo</title>
  <defs
     id="defs3340" />
  <sodipodi:namedview
     id="base"
     pagecolor="#ffffff"
     bordercolor="#666666"
     borderopacity="1.0"
     inkscape:pageopacity="0.0"
     inkscape:pageshadow="2"
     inkscape:zoom="0.7765625"
     inkscape:cx="295.05853"
     inkscape:cy="184.44191"
     inkscape:document-units="px"
     inkscape:current-layer="layer1"
     showgrid="false"
     fit-margin-top="0"
     fit-margin-left="0"
     fit-margin-right="0"
     fit-margin-bottom="0"
     inkscape:window-width="1366"
     inkscape:window-height="705"
     inkscape:window-x="0"
     inkscape:window-y="30"
     inkscape:window-maximized="1" />
  <metadata
     id="metadata3343">
    <rdf:RDF>
      <cc:Work
         rdf:about="">
        <dc:format>image/svg+xml</dc:format>
        <dc:type
           rdf:resource="http://purl.org/dc/dcmitype/StillImage" />
        <dc:title>Falcon 9 Logo</dc:title>
        <dc:rights>
          <cc:Agent>
            <dc:title>Space Exploration Technologies Corp</dc:title>
          </cc:Agent>
        </dc:rights>
      </cc:Work>
    </rdf:RDF>
  </metadata>
  <g
     inkscape:label="Layer 1"
     inkscape:groupmode="layer"
     id="layer1"
     transform="translate(-53.968014,-289.74949)">
    <g
       id="g4304"
       transform="translate(-1.2877232,21.891348)">
      <g
         transform="translate(-3.2477455,1.7645337)"
         id="g4276">
        <path
           style="fill:#ec1747;fill-opacity:1;fill-rule:evenodd;stroke:none;stroke-width:1px;stroke-linecap:butt;stroke-linejoin:miter;stroke-opacity:1"
           d="m 58.503483,266.09361 c 19.538586,48.3596 46.575707,86.32125 76.662977,119.33215 65.45692,71.81749 152.10506,126.67573 223.46533,161.34288 l -54.40644,23.01811 C 240.52031,527.98235 188.6388,481.60983 136.74729,413.06706 110.06874,377.82774 81.985616,334.03354 58.503483,266.09361 Z"
           id="path3472"
           inkscape:connector-curvature="0"
           sodipodi:nodetypes="csccsc" />
        <path
           style="fill:#ec1747;fill-opacity:1;fill-rule:evenodd;stroke:none;stroke-width:1px;stroke-linecap:butt;stroke-linejoin:miter;stroke-opacity:1"
           d="m 184.84369,413.26288 c 108.59789,79.13716 174.98764,117.02547 208.06297,122.3565 21.64905,-9.16228 43.72769,-13.13224 65.72304,-16.6243 46.60181,-7.39868 101.5747,-8.79002 119.2375,-4.58056 7.62973,2.49205 12.96127,7.53764 15.13079,16.09658 -28.40329,-9.03845 -27.75995,-9.90937 -38.63179,-9.65795 -14.75903,0.34131 -25.75442,5.20404 -39.91952,10.62374 20.28674,-3.40364 23.8402,-3.74451 42.25352,-1.31535 -0.48964,3.87931 -9.05453,6.37668 -6.1167,6.76057 4.50086,0.36003 7.90604,1.4877 11.83099,2.03969 0.17199,-0.0246 18.84525,8.02224 26.96177,10.14085 3.577,0.75038 10.70422,0.40241 10.70422,0.40241 -14.95285,9.48602 -16.86472,12.40609 -17.83958,14.62027 23.9701,5.15479 69.95834,1.70646 90.51564,20.47027 7.48839,7.25265 7.8717,9.52073 9.97988,14.48693 l 2.97787,11.91147 c 6.58046,-7.75567 10.15453,-19.34448 3.21931,-35.09055 -11.4121,-20.25302 -37.51222,-29.49444 -53.76257,-33.48088 l -14.16499,-1.93159 c -4.91585,-0.67034 -12.68754,-23.74416 -28.73002,-37.32454 -29.25945,-3.51291 -86.61703,-1.32728 -150.58588,-12.57486 -65.85309,-10.03204 -144.41739,-22.53497 -256.84645,-77.3287 z"
           id="path4274"
           inkscape:connector-curvature="0"
           sodipodi:nodetypes="ccsccsccccccccccccsccc" />
      </g>
      <g
         style="fill:#1c1c1c;fill-opacity:1"
         id="g4292">
        <path
           style="fill:#1c1c1c;fill-opacity:1;fill-rule:evenodd;stroke:#000000;stroke-width:3.54330707;stroke-linecap:butt;stroke-linejoin:miter;stroke-miterlimit:4;stroke-dasharray:none;stroke-opacity:0"
           d="m 306.47887,621.61774 0.16097,152.19316 c 19.84657,-5.26508 33.40587,-18.29453 42.334,-36.29779 l -1.28772,-50.22133 68.89336,0 c 7.39038,-2.81578 12.78185,-7.3806 16.74044,-13.19919 l -84.34608,-0.32193 -0.96579,-39.27566 99.79879,0 c 6.91217,-3.17502 13.43759,-6.73679 17.38431,-12.87726 z"
           id="path4280"
           inkscape:connector-curvature="0"
           sodipodi:nodetypes="ccccccccccc" />
        <path
           style="opacity:1;fill:#1c1c1c;fill-opacity:1;fill-rule:evenodd;stroke:none;stroke-width:1px;stroke-linecap:butt;stroke-linejoin:miter;stroke-opacity:1"
           d="m 532.82617,619.31445 c -14.17598,-0.0609 -24.17391,2.70667 -34.29492,5.53907 -11.79259,3.3002 -23.22589,8.26756 -31.62314,14.95948 -5.70045,4.54278 -10.17536,10.74817 -11.74209,14.4077 -6.92295,21.56354 -2.07243,40.57597 15.32808,52.5913 18.98938,12.77394 44.52655,13.72474 64.23246,8.87159 14.93774,-3.67885 28.19388,-12.67022 37.56055,-26.86328 -2.47949,16.18699 -7.46295,29.87057 -15.70703,40.29297 -10.17364,11.96619 -21.70752,18.49359 -33.69141,23.21875 -26.35774,8.85321 -45.12573,7.35773 -65.10547,7.51367 -7.91632,3.8875 -13.42893,8.52171 -17.41406,13.31641 0,0 37.02782,0.23714 55.43164,-1.48047 15.22736,-1.42115 29.37571,-2.03403 45.29883,-7.2832 16.52738,-5.44837 31.65955,-12.7632 44.61719,-23.22071 11.00355,-8.88046 17.23118,-18.72048 22.76562,-33.00781 6.43966,-16.62418 6.65898,-39.42908 -5.00781,-55.54297 -14.08313,-19.45128 -26.66149,-24.66665 -39.49609,-28.79687 -12.38745,-3.98632 -22.64676,-4.47907 -31.15235,-4.51563 z m 1.51563,12.75586 c 10.50454,0.22657 21.01143,4.31541 28.73047,11.375 7.43599,6.80073 9.64667,18.1423 6.84375,27.73828 -2.45952,9.77295 -14.95758,18.38742 -23.10352,20.56641 -12.20169,3.71509 -25.82132,3.44526 -37.59375,-1.62891 -8.36451,-3.54039 -14.17702,-12.42246 -15.37695,-19.43359 -1.59474,-9.318 -0.63119,-21.64713 8.00976,-28.91992 7.79033,-6.55686 18.28625,-8.72303 27.9961,-9.55469 1.49248,-0.12783 2.99349,-0.17494 4.49414,-0.14258 z"
           id="path4282"
           inkscape:connector-curvature="0"
           sodipodi:nodetypes="sssccscccccssssssssscccssss" />
      </g>
    </g>
  </g>
</svg>
